Coordinates
version=1
nRows=12
nColumns=24
inDegrees=yes

Units are S.I. units (second, meters, Newtons, ...)
Angles are in degrees.

endheader
time	pelvis_tilt	pelvis_list	pelvis_rotation	pelvis_tx	pelvis_ty	pelvis_tz	hip_flexion_r	hip_adduction_r	hip_rotation_r	knee_angle_r	ankle_angle_r	subtalar_angle_r	mtp_angle_r	hip_flexion_l	hip_adduction_l	hip_rotation_l	knee_angle_l	ankle_angle_l	subtalar_angle_l	mtp_angle_l	lumbar_extension	lumbar_bending	lumbar_rotation
      1.02466667	     -2.78913280	     -1.39014567	     -3.84150774	     -0.02085037	      0.88149787	      0.32633440	    -16.27862833	      4.83419517	      2.20716421	     -6.91316315	     19.15391726	      7.61538364	      6.19375790	     29.24933726	     -2.96657950	     -8.65109484	     -4.24754781	      5.71472035	     -2.05821552	      0.89981656	     -4.10871041	      2.67025951	      9.58042090
      1.02883333	     -2.81151093	     -1.32243927	     -3.92334724	     -0.01503261	      0.88026203	      0.32613366	    -16.39987269	      4.68571893	      2.23898559	     -7.45889235	     19.36560668	      7.79759029	      6.34516479	     29.46367820	     -2.90414218	     -8.31573619	     -4.88883849	      5.61713962	     -1.98951355	      0.94354020	     -4.07183228	      2.51791139	      9.67012460
      1.03300000	     -2.82753423	     -1.23641175	     -3.99578290	     -0.00917939	      0.87907413	      0.32589563	    -16.51346225	      4.51576236	      2.23421650	     -8.03259996	     19.55030974	      8.03007092	      6.55725223	     29.67803440	     -2.81575585	     -8.00433909	     -5.61913665	      5.46918459	     -1.95295167	      1.01571550	     -4.04215477	      2.34744334	      9.74622020
      1.03716667	     -2.82653441	     -1.14615773	     -4.05324469	     -0.00328793	      0.87795761	      0.32563585	    -16.63344809	      4.34469906	      2.22046215	     -8.63362334	     19.70191699	      8.20854484	      6.79042476	     29.87047035	     -2.71063972	     -7.68913162	     -6.40962844	      5.29078617	     -1.95571062	      1.10303171	     -4.01933842	      2.15669489	      9.79670548
      1.04133333	     -2.81832497	     -1.03538727	     -4.09544595	      0.00264237	      0.87689238	      0.32534508	    -16.75051807	      4.15386164	      2.18785424	     -9.25627390	     19.80179402	      8.37605095	      7.02901888	     30.05563145	     -2.57384961	     -7.38314994	     -7.25568319	      5.06103816	     -1.99395252	      1.19720376	     -4.00953334	      1.95203318	      9.82628989
      1.04550000	     -2.80441318	     -0.91339285	     -4.12639295	      0.00861633	      0.87588376	      0.32502398	    -16.85842210	      3.95104682	      2.12424246	     -9.91020861	     19.86565105	      8.57852585	      7.31816370	     30.23841866	     -2.41681844	     -7.10615654	     -8.16356223	      4.78100885	     -2.08507297	      1.31315447	     -3.99485470	      1.73066286	      9.83976298
      1.04966667	     -2.72624939	     -0.78185954	     -4.13960758	      0.01466487	      0.87503744	      0.32470686	    -17.08185110	      3.74707989	      2.15352943	    -10.46610100	     19.76467646	      8.57453657	      7.38071697	     30.35097942	     -2.24035143	     -6.88723012	     -9.11877230	      4.46983943	     -2.17122901	      1.33512268	     -4.06671996	      1.49109208	      9.84969260
      1.05383333	     -2.72393308	     -0.62336983	     -4.15283685	      0.02072687	      0.87412173	      0.32430310	    -17.11431957	      3.49849625	      1.95962242	    -11.23699881	     19.69634794	      8.86210850	     11.47912369	     30.50832414	     -2.01443778	     -6.55178493	    -10.02031325	      4.00141863	     -2.61395550	      2.99742508	     -3.99597398	      1.21521071	      9.83289052
      1.05800000	     -2.69694136	     -0.49747450	     -4.13359187	      0.02680279	      0.87327254	      0.32390582	    -17.19854981	      3.30682644	      1.86745660	    -11.97137062	     19.62725352	      8.99871244	     11.54180850	     30.70700337	     -1.83041404	     -6.36691289	    -11.10401703	      3.70036941	     -2.66107186	      3.03011425	     -3.98749516	      0.98891933	      9.78041383
      1.06216667	     -2.66975347	     -0.34557328	     -4.11161242	      0.03293136	      0.87249749	      0.32347868	    -17.25714405	      3.08355573	      1.74341291	    -12.75318807	     19.49225073	      9.15654450	     11.66264843	     30.87652098	     -1.60756557	     -6.16719817	    -12.15190838	      3.31102294	     -2.88985069	      3.07270438	     -3.96284768	      0.72427414	      9.72455145
      1.06633333	     -2.60801702	     -0.17934374	     -4.07465808	      0.03910037	      0.87183237	      0.32300213	    -17.33346242	      2.84118339	      1.57719708	    -13.57295138	     19.35957645	      9.38567222	     12.03147185	     30.99260274	     -1.34935019	     -5.94019924	    -13.18914222	      2.89421286	     -3.28738897	      3.18099755	     -3.98745656	      0.45090491	      9.63703038
      1.07050000	     -2.58751361	     -0.02163254	     -4.02335049	      0.04528772	      0.87116806	      0.32251672	    -17.33937517	      2.62047442	      1.42999842	    -14.44282758	     19.11933719	      9.50136221	     12.48173109	     31.16148028	     -1.09984481	     -5.73723862	    -14.25869417	      2.49046044	     -3.63384400	      3.28952514	     -3.94754019	      0.18380956	      9.53972339
